<!-- by TradingView --><svg width="18" height="18" xmlns="http://www.w3.org/2000/svg"><path fill="#F44336" d="M0 0h18v18H0z"/><path d="M9.63 4.487a.63.63 0 01-.309.543v.612c.408.039.795.15 1.148.32.074-.176.156-.357.248-.546a.63.63 0 11.556.332h-.003a9.877 9.877 0 00-.245.554 3.37 3.37 0 011.333 2.377h.613a.63.63 0 110 .642h-.613a3.37 3.37 0 01-1.316 2.364c.076.18.163.368.26.568a.63.63 0 11-.568.3c-.09-.182-.17-.356-.245-.526a3.351 3.351 0 01-1.168.33v.614a.63.63 0 11-.642 0v-.613a3.35 3.35 0 01-1.168-.33c-.074.17-.156.344-.245.526a.63.63 0 11-.568-.3c.098-.2.184-.389.26-.57a3.369 3.369 0 01-1.316-2.363H5.03a.63.63 0 110-.642h.612a3.37 3.37 0 011.334-2.377 9.944 9.944 0 00-.246-.554h-.002a.63.63 0 11.555-.332c.092.19.174.37.248.547.353-.17.74-.282 1.148-.32V5.03a.63.63 0 11.951-.543z" fill="#fff"/><path d="M11.753 7.8c.408-.16.836-.368 1.323-.627l-.301-.567c-.476.252-.881.448-1.259.597l.237.598zm-6.9-.626c.535.282.997.5 1.44.663l.223-.603c-.407-.15-.841-.353-1.363-.629l-.3.569z" fill="#fff"/><path d="M12.252 6.904a.63.63 0 111.26 0 .63.63 0 01-1.26 0zm-7.134-.63a.63.63 0 100 1.26.63.63 0 000-1.26zM11.753 10.267c.408.162.836.37 1.323.628l-.301.568a12.612 12.612 0 00-1.259-.598l.237-.598zm-6.9.627c.535-.282.997-.5 1.44-.663l.223.603c-.407.15-.841.354-1.363.629l-.3-.569z" fill="#fff"/><path d="M12.252 11.164a.63.63 0 101.26 0 .63.63 0 00-1.26 0zm-7.134.63a.63.63 0 110-1.26.63.63 0 010 1.26z" fill="#fff"/></svg>