<!-- by TradingView --><svg width="18" height="18" fill="none" xmlns="http://www.w3.org/2000/svg"><path fill="#0091BA" d="M0 0h18v18H0z"/><path fill-rule="evenodd" clip-rule="evenodd" d="M3.75 9.003h.813v-2.62h.016l1.766 2.62h.707v-4h-.813v2.6h-.016l-1.76-2.6H3.75v4zm3.731 0H8.97c1.169 0 1.857-.746 1.857-2.015v-.006c0-1.267-.69-1.98-1.857-1.98H7.48v4zm.816-.693V5.693h.575c.715 0 1.123.457 1.123 1.292v.005c0 .865-.394 1.32-1.123 1.32h-.575zm3.275.693h-.88l1.239-2.015v-.009L10.7 5.003h.958l.829 1.441h.03l.823-1.441h.91l-1.277 1.99v.011l1.26 1.999h-.928L12.45 7.6h-.027l-.85 1.403zM8.53 14c.941 0 1.512-.769 1.512-1.999v-.005c0-1.23-.571-1.996-1.512-1.996-.942 0-1.513.766-1.513 1.996v.005c0 1.23.571 1.999 1.513 1.999zm0-.648c-.463 0-.728-.501-.728-1.35v-.006c0-.85.265-1.348.728-1.348.463 0 .727.499.727 1.348v.005c0 .85-.264 1.35-.727 1.35zm-3.069.581h.77v-3.866h-.773l-.959.694v.718l.947-.67h.015v3.124zm8.038-1.932c0 1.23-.571 1.999-1.512 1.999-.942 0-1.513-.769-1.513-1.999v-.005c0-1.23.571-1.996 1.513-1.996.941 0 1.512.766 1.512 1.996v.005zm-2.24 0c0 .85.265 1.35.728 1.35.463 0 .728-.5.728-1.35v-.005c0-.85-.265-1.348-.728-1.348-.463 0-.728.499-.728 1.348v.005z" fill="#fff"/></svg>