<!-- by TradingView --><svg width="18" height="18" fill="none" xmlns="http://www.w3.org/2000/svg"><path fill="#511732" d="M0 0h18v18H0z"/><path d="M4 11h.85V9.557h.658L6.238 11h.929L6.34 9.43c.435-.18.71-.626.71-1.164V8.26C7.05 7.44 6.528 7 5.648 7H4v4zm.85-2.092V7.62h.698c.405 0 .663.25.663.64v.006c0 .402-.244.642-.652.642H4.85zM9.014 11c1.01 0 1.64-.5 1.64-1.407V7h-.82v2.517c0 .53-.293.866-.82.866-.527 0-.823-.337-.823-.866V7h-.82v2.593c0 .909.638 1.407 1.643 1.407zM12.023 11h.82V7.657H14V7h-3.11v.657h1.133V11z" fill="#fff"/></svg>